<?xml version="1.0" standalone="no"?>
<!DOCTYPE svg PUBLIC "-//W3C//DTD SVG 20010904//EN"
 "http://www.w3.org/TR/2001/REC-SVG-20010904/DTD/svg10.dtd">
<svg version="1.0" xmlns="http://www.w3.org/2000/svg"
 width="1417.000000pt" height="319.000000pt" viewBox="0 0 1417.000000 319.000000"
 preserveAspectRatio="xMidYMid meet">
<metadata>
Created by potrace 1.16, written by Peter Selinger 2001-2019
</metadata>
<g transform="translate(0.000000,319.000000) scale(0.100000,-0.100000)"
fill="#ffffff" stroke="none">
<path d="M8585 3104 c-295 -40 -526 -107 -770 -223 -331 -158 -644 -416 -859
-710 -77 -106 -81 -107 174 49 396 242 644 357 974 452 306 88 321 90 706 95
396 6 444 2 695 -62 340 -86 689 -239 1010 -441 83 -52 109 -64 143 -64 23 0
42 4 42 8 0 33 -166 211 -314 339 -258 222 -579 393 -915 488 -269 75 -632
104 -886 69z"/>
<path  d="M1825 2875 c-226 -49 -364 -101 -566 -211 -167 -91 -252 -123 -438
-163 -79 -17 -177 -43 -218 -56 -92 -31 -291 -129 -403 -198 -81 -50 -85 -54
-88 -91 -5 -61 26 -182 55 -216 14 -17 62 -85 107 -152 100 -149 133 -178 212
-185 123 -11 328 69 442 172 104 95 118 138 131 408 9 169 11 183 31 199 12
10 26 15 31 12 5 -3 39 -49 76 -102 80 -116 193 -236 248 -265 112 -58 423 17
548 133 69 63 76 84 88 292 13 208 9 271 -22 354 -39 106 -48 109 -234 69z
m80 -171 c50 -53 95 -257 81 -365 -10 -77 -34 -111 -113 -158 -95 -56 -206
-91 -287 -91 -81 0 -99 7 -164 62 -96 83 -182 218 -182 289 0 55 57 115 160
168 159 83 280 119 398 120 77 1 85 -1 107 -25z m-959 -361 l26 -28 -4 -170
c-3 -152 -6 -176 -27 -223 -13 -29 -41 -68 -62 -86 -71 -60 -234 -127 -349
-142 l-51 -7 -52 54 c-86 89 -137 214 -137 335 0 53 3 63 28 86 67 64 192 129
329 172 105 33 107 34 196 35 73 1 80 -1 103 -26z"/>
<path fill="red" d="M4625 2730 c-145 -26 -274 -92 -384 -196 -86 -80 -123 -158 -147
-299 -34 -214 17 -384 161 -528 59 -59 139 -107 410 -244 262 -132 323 -179
384 -293 78 -146 59 -361 -40 -445 -81 -67 -242 -91 -414 -61 -162 29 -234 67
-271 144 -19 40 -93 297 -94 324 0 9 -7 24 -16 32 -19 19 -93 22 -99 4 -2 -7
-8 -141 -13 -298 -8 -213 -7 -288 1 -296 20 -19 207 -81 317 -104 138 -30 358
-32 470 -6 106 26 210 78 267 134 96 93 173 214 198 311 20 77 20 276 0 351
-35 131 -114 243 -229 324 -58 41 -105 66 -431 237 -240 125 -295 168 -344
269 -22 47 -26 68 -26 150 0 115 19 174 74 223 63 57 137 79 281 85 140 5 221
-9 288 -52 61 -38 68 -55 154 -341 l24 -80 49 0 c48 0 49 1 56 35 4 19 11 140
15 267 l7 233 -84 40 c-129 61 -221 82 -379 86 -74 1 -158 -1 -185 -6z"/>
<path  d="M8623 2560 c-181 -27 -392 -134 -544 -277 -217 -205 -321 -468 -306
-772 7 -141 26 -218 83 -340 103 -220 248 -362 485 -475 150 -72 235 -91 419
-91 172 0 264 18 404 77 262 111 472 328 565 585 33 89 61 240 61 324 0 483
-374 909 -851 969 -93 11 -237 11 -316 0z m273 -345 c116 -22 215 -65 293
-127 54 -42 135 -147 172 -221 50 -104 62 -167 57 -302 -4 -94 -9 -121 -37
-189 -74 -183 -217 -321 -409 -394 -61 -23 -81 -26 -217 -26 -138 0 -156 2
-217 26 -188 72 -329 210 -400 393 -20 52 -23 78 -23 197 0 75 3 139 6 142 3
3 28 -5 55 -18 74 -36 131 -49 211 -48 126 1 231 43 316 126 65 62 91 125 95
224 4 77 2 87 -31 157 l-36 75 44 0 c24 0 78 -7 121 -15z"/>
<path d="M12504 2460 c-106 -15 -150 -116 -94 -219 41 -78 181 -81 251 -5 36
39 42 65 29 114 -23 85 -88 124 -186 110z"/>
<path d="M11563 1828 c3 -304 11 -585 16 -624 28 -201 126 -307 307 -334 38
-5 133 -11 212 -12 l142 -3 0 118 0 117 -47 1 c-111 1 -280 17 -304 29 -15 7
-32 23 -38 37 -7 15 -14 147 -18 359 l-6 334 44 1 c24 1 114 4 199 8 l155 6 0
115 0 115 -202 3 -203 2 0 134 0 133 -92 7 c-50 3 -109 6 -131 6 l-40 0 6
-552z"/>
<path d="M10575 2100 c-219 -35 -381 -152 -478 -345 -19 -38 -41 -97 -47 -130
-19 -88 -13 -1022 6 -1212 l5 -53 118 0 117 0 -4 301 -5 301 72 -36 c111 -57
180 -69 361 -64 146 4 160 7 237 37 255 100 405 336 389 611 -8 143 -50 252
-140 363 -81 99 -234 192 -356 215 -79 16 -217 22 -275 12z m164 -231 c138
-23 252 -106 317 -230 27 -50 29 -62 29 -169 0 -140 -16 -182 -99 -266 -81
-80 -142 -105 -275 -112 -80 -3 -120 -1 -162 11 -45 14 -179 94 -253 151 -18
14 -18 24 -9 178 8 143 12 170 35 220 50 108 138 179 261 213 65 17 75 18 156
4z"/>
<path d="M12450 2103 c-14 -3 -28 -10 -32 -17 -4 -6 -8 -284 -8 -618 l0 -608
130 0 130 0 0 535 c0 498 1 535 18 544 16 10 16 10 0 11 -15 0 -18 10 -18 69
0 56 -3 70 -17 76 -24 9 -172 15 -203 8z"/>
<path d="M13505 2098 c-199 -17 -321 -68 -437 -183 -112 -112 -167 -234 -175
-395 -10 -190 45 -338 175 -469 157 -157 334 -211 695 -211 l107 0 0 113 c0
61 -4 117 -8 123 -4 7 -74 14 -188 18 -207 8 -270 22 -356 79 -118 79 -174
219 -149 375 13 81 34 122 93 187 89 97 181 125 416 125 173 0 172 -1 172 145
l0 105 -122 -1 c-68 -1 -168 -6 -223 -11z"/>
<path d="M5788 1679 c-19 -11 -23 -58 -12 -143 l7 -46 243 0 244 0 0 100 0
100 -232 0 c-140 0 -240 -5 -250 -11z"/>
<path d="M6880 1069 c0 -61 290 -395 465 -536 340 -274 751 -440 1227 -494
144 -16 457 -6 608 19 212 36 409 95 609 183 177 78 165 62 155 210 -8 105
-12 124 -26 127 -10 2 -96 -22 -191 -52 -391 -126 -481 -140 -897 -141 -357 0
-386 3 -660 70 -375 93 -692 240 -1133 528 -81 54 -150 97 -152 97 -3 0 -5 -5
-5 -11z"/>
</g>
</svg>
