<?xml version="1.0" standalone="no"?>
<!DOCTYPE svg PUBLIC "-//W3C//DTD SVG 20010904//EN"
 "http://www.w3.org/TR/2001/REC-SVG-20010904/DTD/svg10.dtd">
<svg version="1.0" xmlns="http://www.w3.org/2000/svg"
 width="1717.000000pt" height="432.000000pt" viewBox="0 0 1717.000000 432.000000"
 preserveAspectRatio="xMidYMid meet">
<metadata>
Created by potrace 1.16, written by Peter Selinger 2001-2019
</metadata>
<g transform="translate(0.000000,432.000000) scale(0.100000,-0.100000)"
fill="white" stroke="none">
<path d="M10185 3785 c-315 -65 -452 -110 -700 -229 -223 -107 -414 -231 -603
-390 -178 -150 -490 -496 -447 -496 11 0 111 53 245 130 487 277 730 388 1110
506 292 90 371 103 680 114 146 5 373 9 504 10 l240 0 195 -51 c397 -102 705
-221 1046 -402 77 -41 183 -97 235 -125 103 -55 185 -81 201 -65 13 13 -64
107 -193 235 -286 283 -661 517 -1048 653 -339 120 -575 156 -1018 154 l-237
-1 -210 -43z"/>
<path d="M2335 3545 c-182 -47 -380 -124 -661 -254 -187 -86 -213 -95 -458
-162 -272 -74 -379 -112 -566 -205 -180 -89 -268 -147 -276 -181 -4 -14 -4
-57 -1 -96 9 -103 65 -202 253 -443 73 -95 109 -114 209 -114 166 0 370 86
504 214 102 98 109 120 141 423 19 193 36 263 64 263 8 0 66 -62 130 -138 130
-157 224 -249 282 -277 84 -41 288 -16 455 54 88 37 189 102 215 138 49 68 64
174 64 458 0 214 -5 238 -61 316 -20 29 -22 29 -112 29 -63 -1 -120 -8 -182
-25z m148 -195 c54 -64 86 -199 87 -363 0 -102 -14 -141 -67 -187 -42 -38
-159 -97 -238 -122 -86 -27 -211 -34 -255 -16 -88 38 -210 169 -272 292 -35
70 -35 124 1 175 45 63 201 151 366 206 107 36 145 43 257 44 95 1 97 1 121
-29z m-1135 -411 l37 -22 -7 -136 c-9 -178 -25 -298 -46 -341 -38 -79 -149
-153 -320 -210 -122 -41 -196 -54 -222 -40 -31 17 -127 141 -154 201 -35 77
-56 163 -56 234 0 52 4 65 30 96 56 69 231 157 423 214 113 33 261 35 315 4z"/>
<path fill="red" d="M5242 3534 c-400 -49 -578 -179 -652 -479 -19 -76 -22 -119 -23 -270
0 -184 7 -245 45 -360 79 -237 278 -400 628 -515 122 -40 578 -199 618 -215
52 -21 114 -90 130 -143 7 -22 12 -82 12 -134 0 -83 -3 -101 -27 -148 -33 -65
-85 -96 -184 -110 -86 -13 -449 -12 -824 1 -254 9 -310 8 -321 -3 -9 -8 -18
-76 -29 -198 -8 -102 -16 -196 -18 -209 -3 -30 2 -31 228 -70 501 -86 1023
-88 1340 -6 205 53 358 190 418 375 44 135 62 325 47 493 -33 359 -178 553
-516 688 -84 33 -135 50 -444 149 -408 131 -466 175 -477 353 -10 151 22 232
106 271 45 21 56 21 621 21 l575 0 7 25 c4 14 12 81 18 150 6 69 14 150 17
181 l5 56 -128 31 c-141 33 -293 56 -481 72 -167 14 -554 10 -691 -6z"/>
<path d="M10443 3189 c-157 -26 -382 -125 -523 -230 -212 -157 -377 -387 -441
-614 -26 -93 -38 -432 -19 -544 15 -91 131 -328 210 -433 87 -115 266 -252
435 -332 175 -84 282 -106 515 -106 261 0 477 67 701 216 140 93 306 280 381
429 115 226 150 552 83 780 -109 374 -425 694 -786 795 -166 46 -410 63 -556
39z m362 -411 c176 -40 308 -122 422 -262 95 -117 132 -201 143 -329 5 -56 9
-146 10 -200 0 -92 -2 -101 -36 -170 -133 -265 -359 -448 -589 -476 -207 -25
-339 -10 -470 53 -163 78 -284 191 -381 356 l-44 75 0 182 0 183 23 0 c12 0
57 -11 100 -25 159 -51 351 -27 483 61 118 78 161 153 177 301 l10 104 -33 81
c-27 64 -31 81 -20 88 18 11 93 3 205 -22z"/>
<path d="M14988 3050 c-95 -50 -104 -174 -19 -254 62 -59 183 -44 264 32 22
21 27 34 27 72 0 63 -35 130 -80 152 -49 24 -145 23 -192 -2z"/>
<path d="M13926 2649 c7 -504 24 -985 39 -1071 26 -150 112 -260 242 -313 54
-21 99 -30 223 -41 85 -7 190 -14 233 -14 l77 0 0 134 0 135 -42 5 c-24 3
-104 10 -178 16 -156 13 -207 22 -229 44 -21 21 -27 98 -41 485 -9 245 -9 325
0 331 13 8 223 20 363 20 l97 0 0 135 0 135 -235 0 -235 0 0 150 c0 132 -2
150 -17 159 -10 5 -82 12 -159 16 l-142 7 4 -333z"/>
<path d="M16335 2659 c-261 -12 -405 -54 -553 -164 -118 -87 -225 -247 -253
-380 -7 -33 -13 -118 -13 -190 -1 -119 2 -137 28 -208 36 -99 106 -206 182
-278 185 -173 346 -222 803 -245 l143 -7 -6 114 c-10 165 -10 166 -54 173 -20
3 -80 8 -132 11 -147 9 -312 33 -374 55 -231 79 -340 349 -233 575 89 188 199
240 555 265 85 5 162 15 172 20 10 5 21 22 24 37 5 23 25 201 26 226 0 8 -84
7 -315 -4z"/>
<path d="M12763 2650 c-86 -9 -186 -40 -268 -83 -82 -43 -239 -201 -284 -286
-73 -139 -74 -145 -78 -556 -4 -360 8 -1070 17 -1078 3 -2 67 -7 143 -10 l137
-5 0 344 c0 189 4 344 8 344 5 0 53 -20 108 -45 l99 -45 245 0 246 0 109 55
c175 87 290 198 361 351 46 99 54 139 54 299 0 165 -8 203 -61 312 -47 99
-127 189 -231 260 -139 96 -219 125 -387 142 -112 12 -112 12 -218 1z m208
-274 c143 -31 242 -95 334 -219 l45 -59 0 -151 c0 -84 -5 -170 -11 -192 -16
-61 -164 -203 -244 -233 -76 -30 -259 -42 -332 -22 -72 19 -262 120 -307 162
l-39 38 6 152 c8 227 36 311 136 406 125 120 242 154 412 118z"/>
<path d="M14974 2651 c-19 -8 -22 -20 -27 -113 -4 -56 -10 -379 -13 -715 l-7
-613 155 0 155 0 6 458 c12 830 8 962 -30 976 -28 11 -218 16 -239 7z"/>
<path d="M7162 2171 c-81 -8 -92 -22 -92 -112 0 -108 -29 -99 301 -99 l289 0
0 110 0 110 -217 -2 c-120 0 -247 -4 -281 -7z"/>
<path d="M8390 1456 c0 -63 343 -447 544 -610 349 -283 821 -483 1326 -561
232 -36 654 -29 900 16 287 51 783 225 839 293 11 12 12 45 8 134 -2 64 -8
125 -12 135 -10 24 -47 22 -161 -12 -156 -47 -379 -107 -504 -136 -104 -24
-144 -28 -415 -36 -337 -11 -614 -5 -754 17 -201 31 -541 130 -769 224 -215
88 -416 194 -762 403 -222 134 -240 144 -240 133z"/>
</g>
</svg>
